{
  "accessors": [
    {
      "bufferView": 2,
      "componentType": 5126,
      "count": 2821,
      "max": [
        0.07534000277519226,
        0.08489000052213669,
        0.06898000091314316
      ],
      "min": [
        -0.07534000277519226,
        0.01909000054001808,
        -0.06898000091314316
      ],
      "type": "VEC3"
    },
    {
      "bufferView": 2,
      "byteOffset": 33852,
      "componentType": 5126,
      "count": 2821,
      "max": [
        1.0,
        1.0,
        1.0
      ],
      "min": [
        -1.0,
        -1.0,
        -1.0
      ],
      "type": "VEC3"
    },
    {
      "bufferView": 1,
      "componentType": 5126,
      "count": 2821,
      "max": [
        0.49292999505996704,
        0.6520000100135803
      ],
      "min": [
        0.020579999312758446,
        0.391400009393692
      ],
      "type": "VEC2"
    },
    {
      "bufferView": 0,
      "componentType": 5125,
      "count": 16512,
      "type": "SCALAR"
    },
    {
      "bufferView": 2,
      "byteOffset": 67704,
      "componentType": 5126,
      "count": 2822,
      "max": [
        0.07534000277519226,
        0.0658000037074089,
        0.06898000091314316
      ],
      "min": [
        -0.07534000277519226,
        0.0,
        -0.06898000091314316
      ],
      "type": "VEC3"
    },
    {
      "bufferView": 2,
      "byteOffset": 101568,
      "componentType": 5126,
      "count": 2822,
      "max": [
        1.0,
        1.0,
        1.0
      ],
      "min": [
        -1.0,
        -1.0,
        -1.0
      ],
      "type": "VEC3"
    },
    {
      "bufferView": 1,
      "byteOffset": 22568,
      "componentType": 5126,
      "count": 2822,
      "max": [
        0.4894300103187561,
        0.9472900032997131
      ],
      "min": [
        0.017079999670386314,
        0.6866899728775024
      ],
      "type": "VEC2"
    },
    {
      "bufferView": 0,
      "byteOffset": 66048,
      "componentType": 5125,
      "count": 16512,
      "type": "SCALAR"
    },
    {
      "bufferView": 2,
      "byteOffset": 135432,
      "componentType": 5126,
      "count": 2820,
      "max": [
        0.07534000277519226,
        0.09446000307798386,
        0.06898000091314316
      ],
      "min": [
        -0.07534000277519226,
        0.02865999937057495,
        -0.06898000091314316
      ],
      "type": "VEC3"
    },
    {
      "bufferView": 2,
      "byteOffset": 169272,
      "componentType": 5126,
      "count": 2820,
      "max": [
        1.0,
        1.0,
        1.0
      ],
      "min": [
        -1.0,
        -1.0,
        -1.0
      ],
      "type": "VEC3"
    },
    {
      "bufferView": 1,
      "byteOffset": 45144,
      "componentType": 5126,
      "count": 2820,
      "max": [
        0.98430997133255,
        0.6520000100135803
      ],
      "min": [
        0.5119600296020508,
        0.391400009393692
      ],
      "type": "VEC2"
    },
    {
      "bufferView": 0,
      "byteOffset": 132096,
      "componentType": 5125,
      "count": 16512,
      "type": "SCALAR"
    },
    {
      "bufferView": 2,
      "byteOffset": 203112,
      "componentType": 5126,
      "count": 2820,
      "max": [
        0.07534000277519226,
        0.11389999836683273,
        0.06898000091314316
      ],
      "min": [
        -0.07534000277519226,
        0.04809999838471413,
        -0.06898000091314316
      ],
      "type": "VEC3"
    },
    {
      "bufferView": 2,
      "byteOffset": 236952,
      "componentType": 5126,
      "count": 2820,
      "max": [
        1.0,
        1.0,
        1.0
      ],
      "min": [
        -1.0,
        -1.0,
        -1.0
      ],
      "type": "VEC3"
    },
    {
      "bufferView": 1,
      "byteOffset": 67704,
      "componentType": 5126,
      "count": 2820,
      "max": [
        0.9832000136375427,
        0.37700000405311584
      ],
      "min": [
        0.5108500123023987,
        0.11641000211238861
      ],
      "type": "VEC2"
    },
    {
      "bufferView": 0,
      "byteOffset": 198144,
      "componentType": 5125,
      "count": 16512,
      "type": "SCALAR"
    },
    {
      "bufferView": 2,
      "byteOffset": 270792,
      "componentType": 5126,
      "count": 2823,
      "max": [
        0.07534000277519226,
        0.07531999796628952,
        0.06898000091314316
      ],
      "min": [
        -0.07534000277519226,
        0.009519999846816063,
        -0.06898000091314316
      ],
      "type": "VEC3"
    },
    {
      "bufferView": 2,
      "byteOffset": 304668,
      "componentType": 5126,
      "count": 2823,
      "max": [
        1.0,
        1.0,
        1.0
      ],
      "min": [
        -1.0,
        -1.0,
        -1.0
      ],
      "type": "VEC3"
    },
    {
      "bufferView": 1,
      "byteOffset": 90264,
      "componentType": 5126,
      "count": 2823,
      "max": [
        0.985319972038269,
        0.9472900032997131
      ],
      "min": [
        0.512969970703125,
        0.6866899728775024
      ],
      "type": "VEC2"
    },
    {
      "bufferView": 0,
      "byteOffset": 264192,
      "componentType": 5125,
      "count": 16512,
      "type": "SCALAR"
    },
    {
      "bufferView": 2,
      "byteOffset": 338544,
      "componentType": 5126,
      "count": 2821,
      "max": [
        0.07534000277519226,
        0.10399000346660614,
        0.06898000091314316
      ],
      "min": [
        -0.07534000277519226,
        0.038189999759197235,
        -0.06898000091314316
      ],
      "type": "VEC3"
    },
    {
      "bufferView": 2,
      "byteOffset": 372396,
      "componentType": 5126,
      "count": 2821,
      "max": [
        1.0,
        1.0,
        1.0
      ],
      "min": [
        -1.0,
        -1.0,
        -1.0
      ],
      "type": "VEC3"
    },
    {
      "bufferView": 1,
      "byteOffset": 112848,
      "componentType": 5126,
      "count": 2821,
      "max": [
        0.48429998755455017,
        0.37700000405311584
      ],
      "min": [
        0.011950000189244747,
        0.11641000211238861
      ],
      "type": "VEC2"
    },
    {
      "bufferView": 0,
      "byteOffset": 330240,
      "componentType": 5125,
      "count": 16512,
      "type": "SCALAR"
    }
  ],
  "asset": {
    "extras": {
      "author": "ebomb2 (https://sketchfab.com/ebomb2)",
      "license": "CC-BY-4.0 (http://creativecommons.org/licenses/by/4.0/)",
      "source": "https://sketchfab.com/3d-models/bowls-designer-set-ff2d194bbe35497e984a03076750135c",
      "title": "Bowls Designer Set"
    },
    "generator": "Sketchfab-12.65.0",
    "version": "2.0"
  },
  "bufferViews": [
    {
      "buffer": 0,
      "byteLength": 396288,
      "name": "floatBufferViews",
      "target": 34963
    },
    {
      "buffer": 0,
      "byteLength": 135416,
      "byteOffset": 396288,
      "byteStride": 8,
      "name": "floatBufferViews",
      "target": 34962
    },
    {
      "buffer": 0,
      "byteLength": 406248,
      "byteOffset": 531704,
      "byteStride": 12,
      "name": "floatBufferViews",
      "target": 34962
    }
  ],
  "buffers": [
    {
      "byteLength": 937952,
      "uri": "scene.bin"
    }
  ],
  "extensionsRequired": [
    "KHR_materials_pbrSpecularGlossiness"
  ],
  "extensionsUsed": [
    "KHR_materials_pbrSpecularGlossiness"
  ],
  "materials": [
    {
      "doubleSided": true,
      "extensions": {
        "KHR_materials_pbrSpecularGlossiness": {
          "diffuseFactor": [
            0.355765531805895,
            0.2686105320814211,
            0.2686105320814211,
            1.0
          ],
          "glossinessFactor": 0.4,
          "specularFactor": [
            1.0,
            1.0,
            1.0
          ]
        }
      },
      "name": "BowlsDesignerSet001_1K"
    }
  ],
  "meshes": [
    {
      "name": "BowlsDesignerSet001_03_0",
      "primitives": [
        {
          "attributes": {
            "NORMAL": 1,
            "POSITION": 0,
            "TEXCOORD_0": 2
          },
          "indices": 3,
          "material": 0,
          "mode": 4
        }
      ]
    },
    {
      "name": "BowlsDesignerSet001_01_0",
      "primitives": [
        {
          "attributes": {
            "NORMAL": 5,
            "POSITION": 4,
            "TEXCOORD_0": 6
          },
          "indices": 7,
          "material": 0,
          "mode": 4
        }
      ]
    },
    {
      "name": "BowlsDesignerSet001_04_0",
      "primitives": [
        {
          "attributes": {
            "NORMAL": 9,
            "POSITION": 8,
            "TEXCOORD_0": 10
          },
          "indices": 11,
          "material": 0,
          "mode": 4
        }
      ]
    },
    {
      "name": "BowlsDesignerSet001_06_0",
      "primitives": [
        {
          "attributes": {
            "NORMAL": 13,
            "POSITION": 12,
            "TEXCOORD_0": 14
          },
          "indices": 15,
          "material": 0,
          "mode": 4
        }
      ]
    },
    {
      "name": "BowlsDesignerSet001_02_0",
      "primitives": [
        {
          "attributes": {
            "NORMAL": 17,
            "POSITION": 16,
            "TEXCOORD_0": 18
          },
          "indices": 19,
          "material": 0,
          "mode": 4
        }
      ]
    },
    {
      "name": "BowlsDesignerSet001_05_0",
      "primitives": [
        {
          "attributes": {
            "NORMAL": 21,
            "POSITION": 20,
            "TEXCOORD_0": 22
          },
          "indices": 23,
          "material": 0,
          "mode": 4
        }
      ]
    }
  ],
  "nodes": [
    {
      "children": [
        1
      ],
      "matrix": [
        1.0,
        0.0,
        0.0,
        0.0,
        0.0,
        2.220446049250313e-16,
        -1.0,
        0.0,
        0.0,
        1.0,
        2.220446049250313e-16,
        0.0,
        0.0,
        0.0,
        0.0,
        1.0
      ],
      "name": "Sketchfab_model"
    },
    {
      "children": [
        2,
        4,
        6,
        8,
        10,
        12
      ],
      "name": "Root"
    },
    {
      "children": [
        3
      ],
      "matrix": [
        1.0,
        0.0,
        0.0,
        0.0,
        0.0,
        -0.0,
        1.0,
        0.0,
        0.0,
        -1.0,
        -0.0,
        0.0,
        0.0,
        0.0,
        0.0,
        1.0
      ],
      "name": "BowlsDesignerSet001_03"
    },
    {
      "mesh": 0,
      "name": "BowlsDesignerSet001_03_0"
    },
    {
      "children": [
        5
      ],
      "matrix": [
        1.0,
        0.0,
        0.0,
        0.0,
        0.0,
        -0.0,
        1.0,
        0.0,
        0.0,
        -1.0,
        -0.0,
        0.0,
        0.0,
        0.0,
        0.0,
        1.0
      ],
      "name": "BowlsDesignerSet001_01"
    },
    {
      "mesh": 1,
      "name": "BowlsDesignerSet001_01_0"
    },
    {
      "children": [
        7
      ],
      "matrix": [
        1.0,
        0.0,
        0.0,
        0.0,
        0.0,
        -0.0,
        1.0,
        0.0,
        0.0,
        -1.0,
        -0.0,
        0.0,
        0.0,
        0.0,
        0.0,
        1.0
      ],
      "name": "BowlsDesignerSet001_04"
    },
    {
      "mesh": 2,
      "name": "BowlsDesignerSet001_04_0"
    },
    {
      "children": [
        9
      ],
      "matrix": [
        1.0,
        0.0,
        0.0,
        0.0,
        0.0,
        -0.0,
        1.0,
        0.0,
        0.0,
        -1.0,
        -0.0,
        0.0,
        0.0,
        0.0,
        0.0,
        1.0
      ],
      "name": "BowlsDesignerSet001_06"
    },
    {
      "mesh": 3,
      "name": "BowlsDesignerSet001_06_0"
    },
    {
      "children": [
        11
      ],
      "matrix": [
        1.0,
        0.0,
        0.0,
        0.0,
        0.0,
        -0.0,
        1.0,
        0.0,
        0.0,
        -1.0,
        -0.0,
        0.0,
        0.0,
        0.0,
        0.0,
        1.0
      ],
      "name": "BowlsDesignerSet001_02"
    },
    {
      "mesh": 4,
      "name": "BowlsDesignerSet001_02_0"
    },
    {
      "children": [
        13
      ],
      "matrix": [
        1.0,
        0.0,
        0.0,
        0.0,
        0.0,
        -0.0,
        1.0,
        0.0,
        0.0,
        -1.0,
        -0.0,
        0.0,
        0.0,
        0.0,
        0.0,
        1.0
      ],
      "name": "BowlsDesignerSet001_05"
    },
    {
      "mesh": 5,
      "name": "BowlsDesignerSet001_05_0"
    }
  ],
  "scene": 0,
  "scenes": [
    {
      "name": "Sketchfab_Scene",
      "nodes": [
        0
      ]
    }
  ]
}
