{
  "accessors": [
    {
      "bufferView": 2,
      "componentType": 5126,
      "count": 887,
      "max": [
        0.18199999630451202,
        0.18793821334838867,
        0.051565930247306824
      ],
      "min": [
        -0.18199999630451202,
        -0.3862522542476654,
        -0.0025551598519086838
      ],
      "type": "VEC3"
    },
    {
      "bufferView": 2,
      "byteOffset": 10644,
      "componentType": 5126,
      "count": 887,
      "max": [
        1.0,
        1.0,
        1.0
      ],
      "min": [
        -1.0,
        -1.0,
        -1.0
      ],
      "type": "VEC3"
    },
    {
      "bufferView": 1,
      "componentType": 5126,
      "count": 887,
      "max": [
        0.9879946708679199,
        0.9857006072998047
      ],
      "min": [
        0.01889675483107567,
        0.01583915576338768
      ],
      "type": "VEC2"
    },
    {
      "bufferView": 1,
      "byteOffset": 7096,
      "componentType": 5126,
      "count": 887,
      "max": [
        0.9879946708679199,
        0.9857006072998047
      ],
      "min": [
        0.01889675483107567,
        0.01583915576338768
      ],
      "type": "VEC2"
    },
    {
      "bufferView": 0,
      "componentType": 5125,
      "count": 2646,
      "type": "SCALAR"
    }
  ],
  "asset": {
    "extras": {
      "author": "Aullwen (https://sketchfab.com/Aullwen)",
      "license": "CC-BY-4.0 (http://creativecommons.org/licenses/by/4.0/)",
      "source": "https://sketchfab.com/3d-models/frying-pan-36cm-ffebd77d0373462eb7c6d2d4941eb39c",
      "title": "Frying Pan Ø36cm"
    },
    "generator": "Sketchfab-12.68.0",
    "version": "2.0"
  },
  "bufferViews": [
    {
      "buffer": 0,
      "byteLength": 10584,
      "name": "floatBufferViews",
      "target": 34963
    },
    {
      "buffer": 0,
      "byteLength": 14192,
      "byteOffset": 10584,
      "byteStride": 8,
      "name": "floatBufferViews",
      "target": 34962
    },
    {
      "buffer": 0,
      "byteLength": 21288,
      "byteOffset": 24776,
      "byteStride": 12,
      "name": "floatBufferViews",
      "target": 34962
    }
  ],
  "buffers": [
    {
      "byteLength": 46064,
      "uri": "scene.bin"
    }
  ],
  "images": [
    {
      "uri": "textures/FryPan_baseColor.png"
    },
    {
      "uri": "textures/FryPan_metallicRoughness.png"
    }
  ],
  "materials": [
    {
      "doubleSided": true,
      "name": "FryPan",
      "pbrMetallicRoughness": {
        "baseColorTexture": {
          "index": 0
        },
        "metallicFactor": 0.8,
        "metallicRoughnessTexture": {
          "index": 1
        }
      }
    }
  ],
  "meshes": [
    {
      "name": "Fry_pan_FryPan_0",
      "primitives": [
        {
          "attributes": {
            "NORMAL": 1,
            "POSITION": 0,
            "TEXCOORD_0": 2,
            "TEXCOORD_1": 3
          },
          "indices": 4,
          "material": 0,
          "mode": 4
        }
      ]
    }
  ],
  "nodes": [
    {
      "children": [
        1
      ],
      "matrix": [
        1.0,
        0.0,
        0.0,
        0.0,
        0.0,
        2.220446049250313e-16,
        -1.0,
        0.0,
        0.0,
        1.0,
        2.220446049250313e-16,
        0.0,
        0.0,
        0.0,
        0.0,
        1.0
      ],
      "name": "Sketchfab_model"
    },
    {
      "children": [
        2
      ],
      "matrix": [
        1.0,
        0.0,
        0.0,
        0.0,
        0.0,
        0.0,
        1.0,
        0.0,
        0.0,
        -1.0,
        0.0,
        0.0,
        0.0,
        0.0,
        0.0,
        1.0
      ],
      "name": "697ad12af1184b878e579c61c943334e.fbx"
    },
    {
      "children": [
        3
      ],
      "name": "RootNode"
    },
    {
      "children": [
        4
      ],
      "matrix": [
        100.0,
        0.0,
        0.0,
        0.0,
        0.0,
        -1.629206793918314e-05,
        -99.99999999999868,
        0.0,
        0.0,
        99.99999999999868,
        -1.629206793918314e-05,
        0.0,
        0.0,
        0.19999998807907104,
        0.0,
        1.0
      ],
      "name": "Fry_pan"
    },
    {
      "mesh": 0,
      "name": "Fry_pan_FryPan_0"
    }
  ],
  "samplers": [
    {
      "magFilter": 9729,
      "minFilter": 9987,
      "wrapS": 10497,
      "wrapT": 10497
    }
  ],
  "scene": 0,
  "scenes": [
    {
      "name": "Sketchfab_Scene",
      "nodes": [
        0
      ]
    }
  ],
  "textures": [
    {
      "sampler": 0,
      "source": 0
    },
    {
      "sampler": 0,
      "source": 1
    }
  ]
}
