{
  "accessors": [
    {
      "bufferView": 2,
      "componentType": 5126,
      "count": 129,
      "max": [
        10.067352294921875,
        0.18602871894836426,
        1.1973906755447388
      ],
      "min": [
        7.428193092346191,
        0.009974949061870575,
        0.6252380609512329
      ],
      "type": "VEC3"
    },
    {
      "bufferView": 2,
      "byteOffset": 1548,
      "componentType": 5126,
      "count": 129,
      "max": [
        0.8726926445960999,
        0.9999734163284302,
        0.9167870283126831
      ],
      "min": [
        -0.8987680077552795,
        -0.9999813437461853,
        -0.9330251812934875
      ],
      "type": "VEC3"
    },
    {
      "bufferView": 3,
      "componentType": 5126,
      "count": 129,
      "max": [
        0.7453209757804871,
        0.9280252456665039,
        0.9902386665344238,
        1.0
      ],
      "min": [
        -0.7202841639518738,
        -0.9484349489212036,
        -0.9999987483024597,
        1.0
      ],
      "type": "VEC4"
    },
    {
      "bufferView": 1,
      "componentType": 5126,
      "count": 129,
      "max": [
        0.9306575059890747,
        0.9949933290481567
      ],
      "min": [
        0.7690610289573669,
        0.671580970287323
      ],
      "type": "VEC2"
    },
    {
      "bufferView": 0,
      "componentType": 5125,
      "count": 624,
      "type": "SCALAR"
    }
  ],
  "asset": {
    "extras": {
      "author": "E.Dejnes (https://sketchfab.com/E.Dejnes)",
      "license": "CC-BY-NC-4.0 (http://creativecommons.org/licenses/by-nc/4.0/)",
      "source": "https://sketchfab.com/3d-models/wood-spoon-a1ee69e7687543aa8753ad054481d67f",
      "title": "Wood Spoon"
    },
    "generator": "Sketchfab-12.67.0",
    "version": "2.0"
  },
  "bufferViews": [
    {
      "buffer": 0,
      "byteLength": 2496,
      "name": "floatBufferViews",
      "target": 34963
    },
    {
      "buffer": 0,
      "byteLength": 1032,
      "byteOffset": 2496,
      "byteStride": 8,
      "name": "floatBufferViews",
      "target": 34962
    },
    {
      "buffer": 0,
      "byteLength": 3096,
      "byteOffset": 3528,
      "byteStride": 12,
      "name": "floatBufferViews",
      "target": 34962
    },
    {
      "buffer": 0,
      "byteLength": 2064,
      "byteOffset": 6624,
      "byteStride": 16,
      "name": "floatBufferViews",
      "target": 34962
    }
  ],
  "buffers": [
    {
      "byteLength": 8688,
      "uri": "scene.bin"
    }
  ],
  "images": [
    {
      "uri": "textures/Tools_Material_baseColor.png"
    },
    {
      "uri": "textures/Tools_Material_metallicRoughness.png"
    },
    {
      "uri": "textures/Tools_Material_normal.png"
    }
  ],
  "materials": [
    {
      "doubleSided": true,
      "name": "Tools_Material",
      "normalTexture": {
        "index": 2
      },
      "pbrMetallicRoughness": {
        "baseColorTexture": {
          "index": 0
        },
        "metallicRoughnessTexture": {
          "index": 1
        }
      }
    }
  ],
  "meshes": [
    {
      "name": "Wood_Spoon_Tools_Material_0",
      "primitives": [
        {
          "attributes": {
            "NORMAL": 1,
            "POSITION": 0,
            "TANGENT": 2,
            "TEXCOORD_0": 3
          },
          "indices": 4,
          "material": 0,
          "mode": 4
        }
      ]
    }
  ],
  "nodes": [
    {
      "children": [
        1
      ],
      "matrix": [
        1.0,
        0.0,
        0.0,
        0.0,
        0.0,
        2.220446049250313e-16,
        -1.0,
        0.0,
        0.0,
        1.0,
        2.220446049250313e-16,
        0.0,
        0.0,
        0.0,
        0.0,
        1.0
      ],
      "name": "Sketchfab_model"
    },
    {
      "children": [
        2
      ],
      "matrix": [
        1.0,
        0.0,
        0.0,
        0.0,
        0.0,
        0.0,
        1.0,
        0.0,
        0.0,
        -1.0,
        0.0,
        0.0,
        0.0,
        0.0,
        0.0,
        1.0
      ],
      "name": "wood_spoon.fbx"
    },
    {
      "children": [
        3
      ],
      "name": "RootNode"
    },
    {
      "children": [
        4
      ],
      "name": "Alchemy_Set"
    },
    {
      "children": [
        5
      ],
      "matrix": [
        1.0,
        0.0,
        0.0,
        0.0,
        0.0,
        1.0,
        0.0,
        0.0,
        0.0,
        0.0,
        1.0,
        0.0,
        7.4275102615356445,
        12.04300308227539,
        0.0,
        1.0
      ],
      "name": "Tools"
    },
    {
      "children": [
        6
      ],
      "matrix": [
        0.8098477707483355,
        0.0,
        -0.5866400840497958,
        0.0,
        0.0,
        1.0,
        0.0,
        0.0,
        0.5866400840497958,
        0.0,
        0.8098477707483355,
        0.0,
        -10.860567092895508,
        0.15315920114517212,
        2.0963897705078125,
        1.0
      ],
      "name": "Wood_Spoon"
    },
    {
      "mesh": 0,
      "name": "Wood_Spoon_Tools_Material_0"
    }
  ],
  "samplers": [
    {
      "magFilter": 9729,
      "minFilter": 9987,
      "wrapS": 10497,
      "wrapT": 10497
    }
  ],
  "scene": 0,
  "scenes": [
    {
      "name": "Sketchfab_Scene",
      "nodes": [
        0
      ]
    }
  ],
  "textures": [
    {
      "sampler": 0,
      "source": 0
    },
    {
      "sampler": 0,
      "source": 1
    },
    {
      "sampler": 0,
      "source": 2
    }
  ]
}
